<svg width="16" height="17" viewBox="0 0 16 17" fill="none" xmlns="http://www.w3.org/2000/svg">
<g id="icon-16-calendar">
<path id="Color" fill-rule="evenodd" clip-rule="evenodd" d="M4.66667 11.1667C4.66667 10.8 4.96667 10.5 5.33333 10.5C5.7 10.5 6 10.8 6 11.1667C6 11.5333 5.7 11.8333 5.33333 11.8333C4.96667 11.8333 4.66667 11.5333 4.66667 11.1667ZM8 10.5H10.6667C11.0333 10.5 11.3333 10.8 11.3333 11.1667C11.3333 11.5333 11.0333 11.8333 10.6667 11.8333H8C7.63333 11.8333 7.33333 11.5333 7.33333 11.1667C7.33333 10.8 7.63333 10.5 8 10.5ZM12 13.8333H4C3.63267 13.8333 3.33333 13.534 3.33333 13.1667V9.16666H12.6667V13.1667C12.6667 13.534 12.3673 13.8333 12 13.8333ZM4 4.49999H4.66667V5.16666C4.66667 5.53333 4.96667 5.83333 5.33333 5.83333C5.7 5.83333 6 5.53333 6 5.16666V4.49999H10V5.16666C10 5.53333 10.3 5.83333 10.6667 5.83333C11.0333 5.83333 11.3333 5.53333 11.3333 5.16666V4.49999H12C12.3673 4.49999 12.6667 4.79933 12.6667 5.16666V7.83333H3.33333V5.16666C3.33333 4.79933 3.63267 4.49999 4 4.49999ZM12 3.16666H11.3333V2.49999C11.3333 2.13333 11.0333 1.83333 10.6667 1.83333C10.3 1.83333 10 2.13333 10 2.49999V3.16666H6V2.49999C6 2.13333 5.7 1.83333 5.33333 1.83333C4.96667 1.83333 4.66667 2.13333 4.66667 2.49999V3.16666H4C2.89733 3.16666 2 4.06399 2 5.16666V13.1667C2 14.2693 2.89733 15.1667 4 15.1667H12C13.1027 15.1667 14 14.2693 14 13.1667V5.16666C14 4.06399 13.1027 3.16666 12 3.16666Z" fill="#181818"/>
</g>
</svg>
