<svg width="24" height="24" viewBox="0 0 24 24" fill="none" xmlns="http://www.w3.org/2000/svg">
<g clip-path="url(#clip0_164_577)">
<path d="M7.22698 5.63609C6.78764 5.19675 6.07533 5.19675 5.63599 5.63609C5.19665 6.07543 5.19665 6.78774 5.63599 7.22708L10.409 12L5.63604 16.773C5.1967 17.2123 5.1967 17.9246 5.63604 18.364C6.07538 18.8033 6.78769 18.8033 7.22703 18.364L11.9999 13.591L16.7729 18.364C17.2123 18.8033 17.9246 18.8033 18.3639 18.364C18.8033 17.9247 18.8033 17.2124 18.3639 16.773L13.5909 12L18.364 7.22703C18.8033 6.78769 18.8033 6.07538 18.364 5.63604C17.9246 5.1967 17.2123 5.1967 16.773 5.63604L11.9999 10.4091L7.22698 5.63609Z" fill="#747474"/>
</g>
<defs>
<clipPath id="clip0_164_577">
<rect width="24" height="24" fill="white"/>
</clipPath>
</defs>
</svg>
