<svg width="24" height="24" viewBox="0 0 24 24" fill="none" xmlns="http://www.w3.org/2000/svg">
<g opacity="0.7">
<path fill-rule="evenodd" clip-rule="evenodd" d="M18.6906 15.9629L13.0006 18.6069V11.8909L19.0006 9.10391V15.5389C19.0006 15.7129 18.8826 15.8749 18.6906 15.9629V15.9629ZM5.30357 15.9639C5.11457 15.8759 4.99857 15.7139 5.00057 15.5319V9.10391L11.0006 11.8909V18.6089L5.30357 15.9639ZM11.7076 5.06391C11.7986 5.02091 11.8996 4.99991 12.0006 4.99991C12.1006 4.99991 12.2016 5.02091 12.2926 5.06391L17.6216 7.53791L12.0006 10.1499L6.37857 7.53791L11.7076 5.06391ZM20.6566 7.25891C20.6536 7.25091 20.6546 7.24191 20.6506 7.23391C20.6476 7.22591 20.6396 7.22091 20.6346 7.21291C20.5886 7.13691 20.5326 7.06991 20.4796 6.99991C20.4486 6.96591 20.4236 6.92791 20.3896 6.89891C20.1546 6.62291 19.8776 6.37991 19.5336 6.22091L13.1336 3.24791C13.1326 3.24791 13.1316 3.24791 13.1316 3.24691C12.4126 2.91491 11.5876 2.91591 10.8666 3.24791L4.46957 6.21991C4.12557 6.37891 3.84757 6.62091 3.61257 6.89691C3.57557 6.92791 3.54857 6.96991 3.51557 7.00691C3.46357 7.07391 3.41057 7.13891 3.36657 7.21091C3.36157 7.21991 3.35357 7.22591 3.34957 7.23391C3.34557 7.24291 3.34657 7.25191 3.34257 7.26091C3.13157 7.62291 3.00057 8.02991 3.00057 8.45791V15.5249C2.99257 16.4749 3.56457 17.3589 4.45857 17.7769L10.8576 20.7489C11.2196 20.9179 11.6076 21.0019 11.9966 21.0019C12.3846 21.0019 12.7726 20.9179 13.1336 20.7499L19.5306 17.7779C20.4226 17.3659 20.9996 16.4879 21.0006 15.5399V8.45691C20.9996 8.02891 20.8686 7.62191 20.6566 7.25891V7.25891Z" fill="white"/>
</g>
</svg>
