<svg width="56" height="56" viewBox="0 0 56 56" fill="none" xmlns="http://www.w3.org/2000/svg">
<rect width="56" height="56" rx="8" fill="#E5E5E5"/>
<path fill-rule="evenodd" clip-rule="evenodd" d="M24 26C24.828 26 25.5 25.328 25.5 24.5C25.5 23.672 24.828 23 24 23C23.172 23 22.5 23.672 22.5 24.5C22.5 25.328 23.172 26 24 26ZM34 35H22.561L29.566 29.155C29.812 28.946 30.258 28.947 30.499 29.154L35 32.994V34C35 34.552 34.552 35 34 35ZM22 21H34C34.552 21 35 21.448 35 22V30.364L31.797 27.632C30.807 26.79 29.258 26.79 28.277 27.626L21 33.698V22C21 21.448 21.448 21 22 21ZM34 19H22C20.346 19 19 20.346 19 22V34C19 35.654 20.346 37 22 37H34C35.654 37 37 35.654 37 34V22C37 20.346 35.654 19 34 19Z" fill="#747474"/>
</svg>
