<svg width="326" height="93" viewBox="0 0 326 93" fill="none" xmlns="http://www.w3.org/2000/svg">
<path d="M47.875 84.6697C48.0159 84.6697 48.1392 84.793 48.1392 84.9163V90.5225C48.1392 90.6811 48.0511 90.8396 47.9278 90.9453C46.8709 91.8437 45.2503 92.3722 43.5592 92.3722C39.7542 92.3722 37.2131 89.8355 37.2131 86.0261C37.2131 82.2167 39.7498 79.6801 43.5592 79.6801C44.8627 79.6801 46.2367 80.0676 47.2584 80.7018C47.3994 80.7722 47.4522 80.9132 47.417 81.0189L46.5362 83.6084C46.4833 83.7317 46.36 83.7845 46.2015 83.7493C45.4793 83.3618 44.5456 83.1328 43.6648 83.1328C42.0442 83.1328 40.952 84.2954 40.952 86.0217C40.952 87.7481 42.0442 88.9459 43.6648 88.9459C44.3166 88.9459 44.757 88.8226 44.9508 88.6112V87.5895H43.3301C43.1716 87.5895 43.0659 87.5191 43.0483 87.3957L42.8193 84.9648C42.8017 84.7886 42.9074 84.6653 43.1011 84.6653H47.875V84.6697Z" fill="#171C8F"/>
<path d="M72.4488 79.9619C74.7565 79.9619 76.2891 81.336 76.2891 83.397C76.2891 84.6653 75.6725 85.5989 74.7213 85.8808C75.8311 86.1626 76.5533 87.2196 76.5533 88.6817C76.5533 90.7427 75.0207 92.1167 72.7307 92.1167H67.1421C67.0012 92.1167 66.8955 91.9934 66.8955 91.8701V80.2218C66.8955 80.0984 67.0012 79.9575 67.1421 79.9575H72.4488V79.9619ZM71.6385 84.7358C72.167 84.7358 72.5193 84.4187 72.5193 83.9255C72.5193 83.4322 72.167 83.1151 71.6385 83.1151H70.5287V84.7358H71.6385ZM71.9556 88.9635C72.4665 88.9635 72.8188 88.6288 72.8188 88.118C72.8188 87.6071 72.4665 87.2724 71.9556 87.2724H70.5287V88.9635H71.9556Z" fill="#171C8F"/>
<path d="M86.6207 88.9503C86.7616 88.9503 86.8849 89.056 86.8849 89.1793V91.8745C86.8849 91.9978 86.7616 92.1211 86.6207 92.1211H78.425C78.3017 92.1211 78.1783 91.9802 78.1431 91.8569V80.2085C78.1431 80.05 78.2312 79.9619 78.3897 79.9619H86.4093C86.5678 79.9619 86.6911 80.0852 86.6911 80.2085V82.8685C86.6911 83.0271 86.5678 83.1328 86.4093 83.1328H81.8116V84.5244H85.5461C85.7046 84.5244 85.7927 84.6477 85.7751 84.7534L85.5285 87.2196C85.5109 87.3253 85.3876 87.4486 85.229 87.4486H81.8116V88.9459H86.6207V88.9503Z" fill="#171C8F"/>
<path d="M98.9384 79.9619C99.097 79.9619 99.2203 80.0852 99.1322 80.2438L95.2391 87.2592V91.8745C95.2391 91.9978 95.1158 92.1211 94.9749 92.1211H91.8745C91.7336 92.1211 91.6103 91.9978 91.6103 91.8745V87.2592L87.7172 80.2438C87.6292 80.0852 87.7525 79.9619 87.911 79.9619H91.5751C91.7512 79.9619 91.9098 80.0852 91.9802 80.2438L93.4247 83.4146L94.8692 80.2438C94.9397 80.0852 95.0982 79.9619 95.2744 79.9619H98.9384Z" fill="#171C8F"/>
<path d="M124.428 79.9619C124.587 79.9619 124.693 80.0852 124.693 80.2262V91.8745C124.693 91.9978 124.587 92.1211 124.428 92.1211H121.381C121.257 92.1211 121.099 92.0331 121.011 91.8921L117.946 86.4093V91.8745C117.946 91.9978 117.84 92.1211 117.681 92.1211H114.564C114.423 92.1211 114.317 91.9978 114.317 91.8745V80.2262C114.317 80.0852 114.423 79.9619 114.564 79.9619H117.611C117.77 79.9619 117.946 80.05 118.016 80.1909L121.064 85.6738V80.2262C121.064 80.0852 121.187 79.9619 121.31 79.9619H124.428Z" fill="#171C8F"/>
<path d="M130.915 79.9619C134.65 79.9619 137.138 82.3753 137.138 86.0437C137.138 89.7122 134.654 92.1255 130.915 92.1255H126.828C126.705 92.1255 126.582 92.0022 126.582 91.8613V80.2306C126.582 80.0896 126.705 79.9663 126.828 79.9663H130.915V79.9619ZM131.127 88.9503C132.483 88.9503 133.399 87.7877 133.399 86.0437C133.399 84.2998 132.483 83.1372 131.127 83.1372H130.211V88.9547H131.127V88.9503Z" fill="#171C8F"/>
<path d="M157.986 79.9619C158.162 79.9619 158.25 80.1029 158.198 80.2614L154.991 91.8393C154.939 91.9978 154.762 92.1211 154.604 92.1211H151.539C151.38 92.1211 151.169 91.9978 151.134 91.8393L149.531 85.6342L147.928 91.8393C147.892 91.9978 147.681 92.1211 147.522 92.1211H144.457C144.299 92.1211 144.123 91.9978 144.07 91.8393L140.859 80.2614C140.806 80.1029 140.895 79.9619 141.071 79.9619H145.017C145.193 79.9619 145.387 80.1029 145.422 80.2614L146.426 85.5329L147.782 80.2614C147.835 80.0852 148.046 79.9619 148.258 79.9619H150.795C151.006 79.9619 151.217 80.0852 151.27 80.2614L152.627 85.5329L153.631 80.2614C153.666 80.1029 153.86 79.9619 154.036 79.9619H157.986Z" fill="#171C8F"/>
<path d="M162.659 79.9619C162.817 79.9619 162.923 80.0852 162.923 80.2262V91.8745C162.923 91.9978 162.817 92.1211 162.659 92.1211H159.541C159.417 92.1211 159.294 91.9978 159.294 91.8745V80.2262C159.294 80.0852 159.417 79.9619 159.541 79.9619H162.659Z" fill="#171C8F"/>
<path d="M173.906 79.9619C174.065 79.9619 174.171 80.0852 174.153 80.2085L173.889 82.8861C173.871 83.0271 173.73 83.1328 173.607 83.1328H170.982V91.8745C170.982 91.9978 170.876 92.1211 170.735 92.1211H167.617C167.477 92.1211 167.353 91.9978 167.353 91.8745V83.1328H164.429C164.306 83.1328 164.182 83.0271 164.182 82.8861V80.2262C164.182 80.0852 164.306 79.9619 164.429 79.9619H173.911H173.906Z" fill="#171C8F"/>
<path d="M185.22 79.9619C185.378 79.9619 185.484 80.0852 185.484 80.2262V91.8745C185.484 91.9978 185.378 92.1211 185.22 92.1211H181.926C181.785 92.1211 181.679 91.9978 181.679 91.8745V87.9286H179.213V91.8745C179.213 91.9978 179.107 92.1211 178.949 92.1211H175.655C175.531 92.1211 175.408 91.9978 175.408 91.8745V80.2262C175.408 80.0852 175.531 79.9619 175.655 79.9619H178.949C179.107 79.9619 179.213 80.0852 179.213 80.2262V84.8239H181.679V80.2262C181.679 80.0852 181.785 79.9619 181.926 79.9619H185.22Z" fill="#171C8F"/>
<path d="M213.669 79.9619C213.845 79.9619 213.969 80.1029 213.969 80.2614V87.6115C213.969 90.7295 212.295 92.3678 209.107 92.3678C205.918 92.3678 204.28 90.7295 204.245 87.6115V80.2614C204.245 80.1029 204.386 79.9619 204.544 79.9619H207.574C207.75 79.9619 207.874 80.1029 207.874 80.2614V87.9286C207.874 88.7389 208.332 89.2146 209.107 89.2146C209.882 89.2146 210.34 88.7389 210.34 87.9462V80.2614C210.34 80.1029 210.481 79.9619 210.639 79.9619H213.669Z" fill="#171C8F"/>
<path d="M225.815 91.8437C225.903 92.0022 225.78 92.1255 225.622 92.1255H221.852C221.676 92.1255 221.517 92.0022 221.447 91.8437L219.615 88.0035H219.403V91.8789C219.403 92.0022 219.28 92.1255 219.121 92.1255H216.021C215.88 92.1255 215.757 92.0022 215.757 91.8789V80.2306C215.757 80.0896 215.88 79.9663 216.021 79.9663H220.671C223.384 79.9663 225.181 81.5517 225.181 83.9475C225.181 85.3391 224.336 86.7484 223.014 87.3121L225.815 91.8393V91.8437ZM220.442 85.0044C221.041 85.0044 221.447 84.6345 221.447 84.0708C221.447 83.5071 221.041 83.1372 220.442 83.1372H219.403V85.0044H220.442Z" fill="#171C8F"/>
<path d="M241.801 79.9619C241.942 79.9619 242.031 80.0852 241.978 80.2085L237.944 91.8745C237.908 91.9978 237.768 92.1211 237.627 92.1211H233.751C233.61 92.1211 233.469 91.9978 233.434 91.8745L229.4 80.2085C229.347 80.0852 229.435 79.9619 229.576 79.9619H233.509C233.667 79.9619 233.808 80.0852 233.844 80.2085L235.693 87.453L237.543 80.2085C237.578 80.0852 237.719 79.9619 237.878 79.9619H241.806H241.801Z" fill="#171C8F"/>
<path d="M246.615 79.9619C246.774 79.9619 246.879 80.0852 246.879 80.2262V91.8745C246.879 91.9978 246.774 92.1211 246.615 92.1211H243.497C243.374 92.1211 243.25 91.9978 243.25 91.8745V80.2262C243.25 80.0852 243.374 79.9619 243.497 79.9619H246.615Z" fill="#171C8F"/>
<path d="M249.733 88.4219C249.786 88.2457 249.909 88.1929 250.05 88.2809C250.86 88.7389 251.829 89.0736 252.499 89.1265C253.062 89.1265 253.432 88.8622 253.432 88.4571C253.432 87.4178 248.478 87.4706 248.478 83.6304C248.478 81.2699 250.257 79.7021 252.939 79.7021C254.19 79.7021 255.775 80.213 256.885 80.9704C257.026 81.0585 257.079 81.1994 257.026 81.2875L255.916 83.7713C255.863 83.9475 255.74 84.0003 255.599 83.9122C254.736 83.419 253.732 83.0491 253.115 82.9962C252.569 82.9962 252.217 83.2428 252.217 83.6304C252.217 84.6697 257.202 84.5993 257.202 88.4747C257.202 90.8176 255.388 92.3854 252.675 92.3854C251.195 92.3854 249.645 91.9274 248.76 91.2227C248.619 91.1171 248.566 90.9937 248.619 90.9057L249.729 88.4219H249.733Z" fill="#171C8F"/>
<path d="M262.178 79.9619C262.337 79.9619 262.443 80.0852 262.443 80.2262V91.8745C262.443 91.9978 262.337 92.1211 262.178 92.1211H259.06C258.937 92.1211 258.814 91.9978 258.814 91.8745V80.2262C258.814 80.0852 258.937 79.9619 259.06 79.9619H262.178Z" fill="#171C8F"/>
<path d="M288.514 79.9619C288.672 79.9619 288.778 80.0852 288.778 80.2262V91.8745C288.778 91.9978 288.672 92.1211 288.514 92.1211H285.466C285.343 92.1211 285.184 92.0331 285.096 91.8921L282.031 86.4093V91.8745C282.031 91.9978 281.926 92.1211 281.767 92.1211H278.649C278.508 92.1211 278.402 91.9978 278.402 91.8745V80.2262C278.402 80.0852 278.508 79.9619 278.649 79.9619H281.697C281.855 79.9619 282.031 80.05 282.102 80.1909L285.149 85.6738V80.2262C285.149 80.0852 285.273 79.9619 285.396 79.9619H288.514Z" fill="#171C8F"/>
<path d="M52.5211 24.5695C53.2169 24.5695 53.8247 25.1772 53.8247 25.7849V53.3931C53.8247 54.1726 53.3887 54.9565 52.7809 55.4762C47.5711 59.9021 39.5868 62.5092 31.2502 62.5092C12.5027 62.5048 0 50.0065 0 31.2546C0 12.5027 12.5027 0 31.2546 0C37.6799 0 44.4487 1.9113 49.4868 5.03368C50.1826 5.38159 50.4425 6.07741 50.2663 6.59707L45.924 19.3596C45.6642 19.9674 45.0565 20.2272 44.277 20.0554C40.7186 18.1441 36.1165 17.0167 31.7743 17.0167C23.7856 17.0167 18.404 22.7462 18.404 31.2546C18.404 39.763 23.7856 45.6642 31.7743 45.6642C34.9847 45.6642 37.1559 45.0565 38.1115 44.0128V38.9791H30.1228C29.3433 38.9791 28.8192 38.6312 28.7356 38.0234L27.6082 26.0448C27.5201 25.1772 28.0441 24.5695 28.9954 24.5695H52.5211Z" fill="#171C8F"/>
<path d="M217.994 1.38723C218.69 1.38723 219.121 1.99497 218.861 2.60272L198.982 60.0738C198.81 60.6816 198.115 61.2893 197.419 61.2893H178.319C177.623 61.2893 176.927 60.6816 176.756 60.0738L156.876 2.60272C156.617 1.99497 157.048 1.38723 157.744 1.38723H177.104C177.883 1.38723 178.579 1.99497 178.755 2.60272L187.871 38.2833L196.987 2.60272C197.159 1.99497 197.855 1.38723 198.634 1.38723H217.994Z" fill="#171C8F"/>
<path d="M257.753 1.38723C258.532 1.38723 259.056 1.99497 259.056 2.69079V60.0738C259.056 60.6816 258.536 61.2893 257.753 61.2893H242.387C241.779 61.2893 241.172 60.6816 241.172 60.0738V2.69079C241.172 1.99497 241.779 1.38723 242.387 1.38723H257.753Z" fill="#171C8F"/>
<path d="M289.183 43.0615C289.443 42.1939 290.051 41.9341 290.747 42.3657C294.741 44.6249 299.515 46.272 302.813 46.5318C305.592 46.5318 307.415 45.2282 307.415 43.2333C307.415 38.1115 283.022 38.3713 283.022 19.4477C283.022 7.81695 291.79 0.0880783 304.984 0.0880783C311.15 0.0880783 318.963 2.60712 324.432 6.33724C325.128 6.77323 325.388 7.46464 325.128 7.90063L319.658 20.1391C319.398 21.0067 318.791 21.2665 318.095 20.8349C313.841 18.404 308.895 16.5807 305.856 16.3209C303.166 16.3209 301.431 17.5364 301.431 19.4477C301.431 24.5695 326 24.2215 326 43.3213C326 54.8684 317.06 62.5929 303.69 62.5929C296.397 62.5929 288.756 60.3337 284.418 56.8634C283.722 56.3437 283.463 55.736 283.722 55.3L289.192 43.0571L289.183 43.0615Z" fill="#171C8F"/>
<path d="M108.742 0.0880783C91.531 0.0880783 77.575 14.0397 77.575 31.2546C77.575 48.4695 91.5266 62.4211 108.742 62.4211C125.956 62.4211 139.908 48.4695 139.908 31.2546C139.908 14.0397 125.952 0.0880783 108.742 0.0880783ZM108.742 43.4535C102.004 43.4535 96.5427 37.9926 96.5427 31.2546C96.5427 24.5166 102.004 19.0558 108.742 19.0558C115.48 19.0558 120.94 24.5166 120.94 31.2546C120.94 37.9926 115.48 43.4535 108.742 43.4535Z" fill="#171C8F"/>
<path d="M56.0046 79.7153C52.5123 79.7153 49.6762 82.547 49.6762 86.0437C49.6762 89.5405 52.5079 92.3722 56.0046 92.3722C59.5013 92.3722 62.333 89.5405 62.333 86.0437C62.333 82.547 59.5013 79.7153 56.0046 79.7153ZM56.0046 88.5187C54.635 88.5187 53.5296 87.409 53.5296 86.0437C53.5296 84.6785 54.6394 83.5687 56.0046 83.5687C57.3698 83.5687 58.4796 84.6785 58.4796 86.0437C58.4796 87.409 57.3698 88.5187 56.0046 88.5187Z" fill="#171C8F"/>
<path d="M106.328 79.7153C102.836 79.7153 99.9998 82.547 99.9998 86.0437C99.9998 89.5405 102.831 92.3722 106.328 92.3722C109.825 92.3722 112.657 89.5405 112.657 86.0437C112.657 82.547 109.825 79.7153 106.328 79.7153ZM106.328 88.5187C104.959 88.5187 103.853 87.409 103.853 86.0437C103.853 84.6785 104.963 83.5687 106.328 83.5687C107.693 83.5687 108.803 84.6785 108.803 86.0437C108.803 87.409 107.693 88.5187 106.328 88.5187Z" fill="#171C8F"/>
<path d="M196.437 79.7153C192.944 79.7153 190.108 82.547 190.108 86.0437C190.108 89.5405 192.94 92.3722 196.437 92.3722C199.933 92.3722 202.765 89.5405 202.765 86.0437C202.765 82.547 199.933 79.7153 196.437 79.7153ZM196.437 88.5187C195.067 88.5187 193.962 87.409 193.962 86.0437C193.962 84.6785 195.072 83.5687 196.437 83.5687C197.802 83.5687 198.912 84.6785 198.912 86.0437C198.912 87.409 197.802 88.5187 196.437 88.5187Z" fill="#171C8F"/>
<path d="M270.418 79.7153C266.926 79.7153 264.09 82.547 264.09 86.0437C264.09 89.5405 266.921 92.3722 270.418 92.3722C273.915 92.3722 276.747 89.5405 276.747 86.0437C276.747 82.547 273.915 79.7153 270.418 79.7153ZM270.418 88.5187C269.049 88.5187 267.943 87.409 267.943 86.0437C267.943 84.6785 269.053 83.5687 270.418 83.5687C271.783 83.5687 272.893 84.6785 272.893 86.0437C272.893 87.409 271.783 88.5187 270.418 88.5187Z" fill="#171C8F"/>
</svg>
