<svg width="45" height="67" viewBox="0 0 45 67" fill="none" xmlns="http://www.w3.org/2000/svg">
<path d="M21.9051 21.0187C18.6554 21.0187 16 23.7212 16 27.0252V40.4635C16 43.7675 18.6597 46.47 21.9051 46.47C25.1506 46.47 27.8103 43.7675 27.8103 40.4635V32.5391H21.801V36.3618H24.0051V40.324C24.0051 41.4791 23.0593 42.4206 21.9008 42.4206C20.7423 42.4206 19.7965 41.4748 19.7965 40.324V27.0426C19.7965 25.8875 20.7423 24.946 21.9008 24.946C23.0593 24.946 24.0051 25.8919 24.0051 27.0426V28.3154H27.8103V27.0252C27.8103 23.7212 25.1506 21.0187 21.9051 21.0187Z" fill="#FF4600"/>
</svg>
