<svg width="24" height="24" viewBox="0 0 24 24" fill="none" xmlns="http://www.w3.org/2000/svg">
<path d="M11.1663 8.23579C11.5958 7.80632 12.3789 7.80632 12.8084 8.23579L17.3558 12.7832C17.8105 13.2379 17.8105 13.9705 17.3558 14.4253C16.9011 14.88 16.1684 14.88 15.7137 14.4253L12 10.7116L8.28632 14.4253C8.05895 14.6526 7.75579 14.7789 7.45263 14.7789C7.14947 14.7789 6.84632 14.6526 6.61895 14.4253C6.16421 13.9705 6.16421 13.2379 6.61895 12.7832L11.1663 8.23579Z" fill="#747474"/>
<path d="M12 0C18.6189 0 24 5.38105 24 12C24 18.6189 18.6189 24 12 24C5.38105 24 0 18.6189 0 12C0 5.38105 5.38105 0 12 0ZM12 21.6758C17.3305 21.6758 21.6758 17.3305 21.6758 12C21.6758 6.66947 17.3305 2.32421 12 2.32421C6.66947 2.32421 2.32421 6.66947 2.32421 12C2.32421 17.3305 6.66947 21.6758 12 21.6758Z" fill="#747474"/>
</svg>
