<svg width="24" height="24" viewBox="0 0 24 24" fill="none" xmlns="http://www.w3.org/2000/svg">
<path d="M20.5 11.9989C20.4983 10.0327 19.815 8.12792 18.5665 6.60896C17.3178 5.08983 15.5811 4.05062 13.6522 3.6684C11.7233 3.28617 9.72146 3.58457 7.98787 4.51275C6.25428 5.44094 4.89614 6.94149 4.14483 8.75874C3.39353 10.576 3.29555 12.5975 3.86758 14.4789C4.43962 16.3603 5.64628 17.9852 7.28198 19.0767C8.91768 20.1682 10.8812 20.6587 12.8381 20.4649C14.7945 20.271 16.6232 19.405 18.0128 18.0143C18.8046 17.2258 19.4321 16.288 19.859 15.2554C20.2858 14.223 20.5037 13.1161 20.5 11.9989ZM20.5 11.9989C20.5 11.9987 20.5 11.9985 20.5 11.9983L20 12L20.5 11.9996C20.5 11.9994 20.5 11.9992 20.5 11.9989ZM15.355 8.64209L15.355 8.6421L15.3579 8.64499C15.4048 8.69147 15.4419 8.74677 15.4673 8.8077C15.4927 8.86863 15.5058 8.93398 15.5058 8.99999C15.5058 9.06599 15.4927 9.13135 15.4673 9.19228C15.4419 9.25321 15.4048 9.30851 15.3579 9.35499L15.3572 9.35566L13.0572 11.6457L12.7013 12L13.0572 12.3543L15.3572 14.6443L15.3579 14.645C15.4048 14.6915 15.4419 14.7468 15.4673 14.8077C15.4927 14.8686 15.5058 14.934 15.5058 15C15.5058 15.066 15.4927 15.1313 15.4673 15.1923C15.4419 15.2532 15.4048 15.3085 15.3579 15.355L15.355 15.3579C15.3085 15.4048 15.2532 15.4419 15.1923 15.4673C15.1313 15.4927 15.066 15.5058 15 15.5058C14.934 15.5058 14.8686 15.4927 14.8077 15.4673C14.7468 15.4419 14.6915 15.4048 14.645 15.3579L14.6443 15.3572L12.3543 13.0572L12 12.7013L11.6457 13.0572L9.35566 15.3572L9.35499 15.3579C9.30851 15.4048 9.25321 15.4419 9.19228 15.4673C9.13135 15.4927 9.06599 15.5058 8.99999 15.5058C8.93398 15.5058 8.86863 15.4927 8.8077 15.4673C8.74677 15.4419 8.69147 15.4048 8.64499 15.3579L8.64209 15.355C8.59522 15.3085 8.55803 15.2532 8.53264 15.1923C8.50726 15.1313 8.49419 15.066 8.49419 15C8.49419 14.934 8.50726 14.8686 8.53264 14.8077C8.55803 14.7468 8.59522 14.6915 8.64209 14.645L8.64277 14.6443L10.9428 12.3543L11.2986 12L10.9428 11.6457L8.64354 9.35643C8.64342 9.35632 8.6433 9.35619 8.64318 9.35608C8.54887 9.26157 8.4959 9.13351 8.4959 8.99999C8.4959 8.86629 8.54901 8.73808 8.64354 8.64354C8.73808 8.54901 8.86629 8.4959 8.99999 8.4959C9.13351 8.4959 9.26157 8.54887 9.35608 8.64318C9.35619 8.6433 9.35632 8.64342 9.35643 8.64354L11.6457 10.9428L12 11.2986L12.3543 10.9428L14.6443 8.64277L14.645 8.64209C14.6915 8.59522 14.7468 8.55803 14.8077 8.53264C14.8686 8.50726 14.934 8.49419 15 8.49419C15.066 8.49419 15.1313 8.50726 15.1923 8.53264C15.2532 8.55803 15.3085 8.59522 15.355 8.64209ZM18.7103 5.27734L18.7164 5.28359L18.7226 5.28963C19.63 6.16598 20.3537 7.21425 20.8516 8.37329C21.3495 9.53233 21.6116 10.7789 21.6225 12.0403C21.6335 13.3017 21.3931 14.5527 20.9154 15.7202C20.4378 16.8877 19.7324 17.9484 18.8404 18.8404C17.9484 19.7324 16.8877 20.4378 15.7202 20.9154C14.5527 21.3931 13.3017 21.6335 12.0403 21.6225C10.7789 21.6116 9.53233 21.3495 8.37329 20.8516C7.21425 20.3537 6.16598 19.63 5.28963 18.7226L5.28359 18.7164L5.27734 18.7103C4.37 17.834 3.64627 16.7857 3.14838 15.6267C2.65049 14.4676 2.38843 13.2211 2.37746 11.9597C2.3665 10.6983 2.60687 9.4473 3.08454 8.27978C3.56221 7.11227 4.26761 6.05157 5.15959 5.15959C6.05157 4.26761 7.11227 3.56221 8.27978 3.08454C9.4473 2.60687 10.6983 2.3665 11.9597 2.37746C13.2211 2.38843 14.4676 2.65049 15.6267 3.14838C16.7857 3.64627 17.834 4.37 18.7103 5.27734Z" stroke="#747474"/>
</svg>
