<svg width="24" height="24" viewBox="0 0 24 24" fill="none" xmlns="http://www.w3.org/2000/svg">
<path d="M6 12C6 11.4477 6.44772 11 7 11H8C8.55228 11 9 11.4477 9 12V18C9 18.5523 8.55228 19 8 19H7C6.44772 19 6 18.5523 6 18V12Z" fill="#747474"/>
<path d="M11 6C11 5.44772 11.4477 5 12 5H13C13.5523 5 14 5.44772 14 6V18C14 18.5523 13.5523 19 13 19H12C11.4477 19 11 18.5523 11 18V6Z" fill="#747474"/>
<path d="M16 10C16 9.44772 16.4477 9 17 9H18C18.5523 9 19 9.44772 19 10V18C19 18.5523 18.5523 19 18 19H17C16.4477 19 16 18.5523 16 18V10Z" fill="#747474"/>
</svg>
