<svg width="24" height="24" viewBox="0 0 24 24" fill="none" xmlns="http://www.w3.org/2000/svg">
<path fill-rule="evenodd" clip-rule="evenodd" d="M20 17L20 19C20 19.55 19.55 20 19 20L5 20C4.45 20 4 19.55 4 19L4 17C4 16.45 4.45 16 5 16C5.55 16 6 16.45 6 17L6 18L18 18L18 17C18 16.45 18.45 16 19 16C19.55 16 20 16.45 20 17ZM16.7996 10.3998C17.1306 10.8438 17.0406 11.4688 16.5996 11.7998L12.5996 14.7998C12.2536 15.0598 11.7796 15.0678 11.4246 14.8178L7.4246 12.0038C7.1476 11.8088 6.9996 11.4998 6.9996 11.1848C6.9996 10.9868 7.0586 10.7858 7.1816 10.6108C7.4996 10.1588 8.1236 10.0498 8.5756 10.3678L11.0176 12.0858C11.0163 12.0723 11.0125 12.0597 11.0087 12.0471C11.0042 12.0316 10.9996 12.0163 10.9996 11.9998L10.9996 3.99979C10.9996 3.44779 11.4476 2.99979 11.9996 2.99979C12.5526 2.99979 12.9996 3.44779 12.9996 3.99979L12.9996 11.9998L12.9996 12.0008L15.4006 10.1998C15.8416 9.86879 16.4686 9.95779 16.7996 10.3998Z" fill="#747474"/>
</svg>
