<svg width="24" height="24" viewBox="0 0 24 24" fill="none" xmlns="http://www.w3.org/2000/svg">
<g opacity="0.7">
<path fill-rule="evenodd" clip-rule="evenodd" d="M5.4368 2.74935C5.07169 2.74935 4.77572 3.04533 4.77572 3.41043V17.9719C4.77572 18.337 5.07169 18.633 5.4368 18.633H10.9266C11.1457 18.633 11.3233 18.8106 11.3233 19.0296C11.3233 19.2487 11.1457 19.4263 10.9266 19.4263H5.4368C4.63357 19.4263 3.98242 18.7751 3.98242 17.9719V3.41043C3.98242 2.6072 4.63357 1.95605 5.4368 1.95605H14.073L19.0702 6.95324V11.0166C19.0702 11.2357 18.8926 11.4133 18.6736 11.4133C18.4545 11.4133 18.2769 11.2357 18.2769 11.0166V7.28184L18.2765 7.28136V7.51421H14.9664C14.1632 7.51421 13.512 6.86306 13.512 6.05983V2.74979H13.7449L13.7444 2.74935H5.4368ZM14.3053 3.31025V6.05983C14.3053 6.42494 14.6013 6.72091 14.9664 6.72091H17.716L14.3053 3.31025Z" fill="white"/>
<path d="M6.28475 5.887C6.28475 5.66794 6.46233 5.49035 6.6814 5.49035H12.1453C12.3643 5.49035 12.5419 5.66794 12.5419 5.887C12.5419 6.10607 12.3643 6.28365 12.1453 6.28365H6.6814C6.46233 6.28365 6.28475 6.10607 6.28475 5.887Z" fill="white"/>
<path d="M6.28478 9.46079C6.28478 9.24173 6.46237 9.06414 6.68143 9.06414H15.656C15.8751 9.06414 16.0527 9.24173 16.0527 9.46079C16.0527 9.67985 15.8751 9.85744 15.656 9.85744H6.68143C6.46237 9.85744 6.28478 9.67985 6.28478 9.46079Z" fill="white"/>
<path d="M6.92013 12.9949C6.70107 12.9949 6.52348 13.1725 6.52348 13.3916C6.52348 13.6106 6.70107 13.7882 6.92013 13.7882H11.7512C11.9702 13.7882 12.1478 13.6106 12.1478 13.3916C12.1478 13.1725 11.9702 12.9949 11.7512 12.9949H6.92013Z" fill="white"/>
<path fill-rule="evenodd" clip-rule="evenodd" d="M20.2756 19.8316C20.2322 19.7882 20.1812 19.7569 20.1268 19.7378C20.7089 18.9958 21.056 18.0605 21.056 17.0443C21.056 14.632 19.1005 12.6765 16.6882 12.6765C14.276 12.6765 12.3205 14.632 12.3205 17.0443C12.3205 19.4565 14.276 21.412 16.6882 21.412C17.8222 21.412 18.8553 20.9799 19.6317 20.2713C19.651 20.3153 19.6786 20.3565 19.7147 20.3925L21.3053 21.9832C21.4602 22.1381 21.7113 22.1381 21.8662 21.9832C22.0211 21.8283 22.0211 21.5771 21.8662 21.4222L20.2756 19.8316ZM16.6882 20.6187C18.6624 20.6187 20.2627 19.0184 20.2627 17.0443C20.2627 15.0701 18.6624 13.4698 16.6882 13.4698C14.7141 13.4698 13.1138 15.0701 13.1138 17.0443C13.1138 19.0184 14.7141 20.6187 16.6882 20.6187Z" fill="white"/>
<path fill-rule="evenodd" clip-rule="evenodd" d="M5.4368 2.74935C5.07169 2.74935 4.77572 3.04533 4.77572 3.41043V17.9719C4.77572 18.337 5.07169 18.633 5.4368 18.633H10.9266C11.1457 18.633 11.3233 18.8106 11.3233 19.0296C11.3233 19.2487 11.1457 19.4263 10.9266 19.4263H5.4368C4.63357 19.4263 3.98242 18.7751 3.98242 17.9719V3.41043C3.98242 2.6072 4.63357 1.95605 5.4368 1.95605H14.073L19.0702 6.95324V11.0166C19.0702 11.2357 18.8926 11.4133 18.6736 11.4133C18.4545 11.4133 18.2769 11.2357 18.2769 11.0166V7.28184L18.2765 7.28136V7.51421H14.9664C14.1632 7.51421 13.512 6.86306 13.512 6.05983V2.74979H13.7449L13.7444 2.74935H5.4368ZM14.3053 3.31025V6.05983C14.3053 6.42494 14.6013 6.72091 14.9664 6.72091H17.716L14.3053 3.31025Z" stroke="white"/>
<path d="M6.28475 5.887C6.28475 5.66794 6.46233 5.49035 6.6814 5.49035H12.1453C12.3643 5.49035 12.5419 5.66794 12.5419 5.887C12.5419 6.10607 12.3643 6.28365 12.1453 6.28365H6.6814C6.46233 6.28365 6.28475 6.10607 6.28475 5.887Z" stroke="white"/>
<path d="M6.28478 9.46079C6.28478 9.24173 6.46237 9.06414 6.68143 9.06414H15.656C15.8751 9.06414 16.0527 9.24173 16.0527 9.46079C16.0527 9.67985 15.8751 9.85744 15.656 9.85744H6.68143C6.46237 9.85744 6.28478 9.67985 6.28478 9.46079Z" stroke="white"/>
<path d="M6.92013 12.9949C6.70107 12.9949 6.52348 13.1725 6.52348 13.3916C6.52348 13.6106 6.70107 13.7882 6.92013 13.7882H11.7512C11.9702 13.7882 12.1478 13.6106 12.1478 13.3916C12.1478 13.1725 11.9702 12.9949 11.7512 12.9949H6.92013Z" stroke="white"/>
<path fill-rule="evenodd" clip-rule="evenodd" d="M20.2756 19.8316C20.2322 19.7882 20.1812 19.7569 20.1268 19.7378C20.7089 18.9958 21.056 18.0605 21.056 17.0443C21.056 14.632 19.1005 12.6765 16.6882 12.6765C14.276 12.6765 12.3205 14.632 12.3205 17.0443C12.3205 19.4565 14.276 21.412 16.6882 21.412C17.8222 21.412 18.8553 20.9799 19.6317 20.2713C19.651 20.3153 19.6786 20.3565 19.7147 20.3925L21.3053 21.9832C21.4602 22.1381 21.7113 22.1381 21.8662 21.9832C22.0211 21.8283 22.0211 21.5771 21.8662 21.4222L20.2756 19.8316ZM16.6882 20.6187C18.6624 20.6187 20.2627 19.0184 20.2627 17.0443C20.2627 15.0701 18.6624 13.4698 16.6882 13.4698C14.7141 13.4698 13.1138 15.0701 13.1138 17.0443C13.1138 19.0184 14.7141 20.6187 16.6882 20.6187Z" stroke="white"/>
</g>
</svg>
