<svg width="24" height="24" viewBox="0 0 24 24" fill="none" xmlns="http://www.w3.org/2000/svg">
<path d="M9.84078 3.33016C10.2051 2.88187 10.3873 2.65773 10.5657 2.51184C11.4 1.82947 12.5996 1.82947 13.4339 2.51184C13.6123 2.65773 13.7945 2.88187 14.1589 3.33016C14.3303 3.54111 14.416 3.64658 14.5077 3.73634C14.9253 4.14558 15.4851 4.37744 16.0698 4.38342C16.1981 4.38473 16.3333 4.37077 16.6037 4.34284C17.1783 4.2835 17.4656 4.25383 17.6949 4.2768C18.7674 4.38424 19.6156 5.23249 19.7231 6.30495C19.746 6.53423 19.7164 6.82155 19.657 7.39619C19.6291 7.66659 19.6152 7.8018 19.6165 7.93005C19.6224 8.51477 19.8543 9.07453 20.2635 9.49222C20.3533 9.58383 20.4588 9.66956 20.6697 9.84102C21.118 10.2054 21.3421 10.3876 21.488 10.5659C22.1704 11.4003 22.1704 12.5999 21.488 13.4342C21.3421 13.6125 21.118 13.7947 20.6697 14.1591C20.4588 14.3306 20.3533 14.4163 20.2635 14.5079C19.8543 14.9256 19.6224 15.4854 19.6165 16.0701C19.6152 16.1983 19.6291 16.3335 19.657 16.6039C19.7164 17.1786 19.746 17.4659 19.7231 17.6952C19.6156 18.7676 18.7674 19.6159 17.6949 19.7233C17.4656 19.7463 17.1783 19.7166 16.6037 19.6573C16.3333 19.6294 16.1981 19.6154 16.0698 19.6167C15.4851 19.6227 14.9253 19.8545 14.5077 20.2638C14.416 20.3535 14.3303 20.459 14.1589 20.67C13.7945 21.1183 13.6123 21.3424 13.4339 21.4883C12.5996 22.1707 11.4 22.1707 10.5657 21.4883C10.3873 21.3424 10.2051 21.1183 9.84078 20.67C9.66932 20.459 9.58359 20.3535 9.49197 20.2638C9.07429 19.8545 8.51452 19.6227 7.9298 19.6167C7.80155 19.6154 7.66635 19.6294 7.39594 19.6573C6.82131 19.7166 6.53399 19.7463 6.30471 19.7233C5.23224 19.6159 4.384 18.7676 4.27656 17.6952C4.25359 17.4659 4.28326 17.1786 4.3426 16.6039C4.37052 16.3335 4.38448 16.1983 4.38317 16.0701C4.3772 15.4854 4.14534 14.9256 3.7361 14.5079C3.64634 14.4163 3.54087 14.3306 3.32992 14.1591C2.88163 13.7947 2.65748 13.6125 2.5116 13.4342C1.82922 12.5999 1.82922 11.4003 2.5116 10.5659C2.65748 10.3876 2.88163 10.2054 3.32992 9.84102C3.54087 9.66956 3.64634 9.58383 3.7361 9.49222C4.14534 9.07453 4.3772 8.51477 4.38317 7.93005C4.38448 7.8018 4.37052 7.66659 4.3426 7.39619C4.28326 6.82155 4.25359 6.53423 4.27656 6.30495C4.384 5.23249 5.23224 4.38425 6.30471 4.2768C6.53399 4.25383 6.82131 4.2835 7.39594 4.34284C7.66635 4.37077 7.80155 4.38473 7.9298 4.38342C8.51452 4.37744 9.07429 4.14558 9.49197 3.73634C9.58359 3.64658 9.66932 3.54111 9.84078 3.33016Z" fill="#747474"/>
<path d="M15 12L9 12" stroke="white" stroke-width="1.5" stroke-linecap="round" stroke-linejoin="round"/>
</svg>
