<svg width="24" height="24" viewBox="0 0 24 24" fill="none" xmlns="http://www.w3.org/2000/svg">
<path d="M11.9914 10.0244C13.0629 10.0244 13.92 10.9024 13.92 12C13.92 13.0976 13.0629 13.9756 11.9914 13.9756C10.92 13.9756 10.0629 13.0976 10.0629 12C10.0629 10.9024 10.92 10.0244 11.9914 10.0244ZM10.0629 4.97561C10.0629 6.07317 10.92 6.95122 11.9914 6.95122C13.0629 6.95122 13.92 6.07317 13.92 4.97561C13.92 3.87805 13.0629 3 11.9914 3C10.92 3 10.0629 3.87805 10.0629 4.97561ZM10.0629 19.0244C10.0629 20.122 10.92 21 11.9914 21C13.0629 21 13.92 20.122 13.92 19.0244C13.92 17.9268 13.0629 17.0488 11.9914 17.0488C10.92 17.0488 10.0629 17.9268 10.0629 19.0244Z" fill="#747474"/>
</svg>
