<svg width="24" height="24" viewBox="0 0 24 24" fill="none" xmlns="http://www.w3.org/2000/svg">
<path fill-rule="evenodd" clip-rule="evenodd" d="M5.43674 2.74935C5.07163 2.74935 4.77566 3.04533 4.77566 3.41043V17.9719C4.77566 18.337 5.07163 18.633 5.43674 18.633H10.9266C11.1456 18.633 11.3232 18.8106 11.3232 19.0296C11.3232 19.2487 11.1456 19.4263 10.9266 19.4263H5.43674C4.63351 19.4263 3.98236 18.7751 3.98236 17.9719V3.41043C3.98236 2.6072 4.63351 1.95605 5.43674 1.95605H14.073L19.0702 6.95324V11.0166C19.0702 11.2357 18.8926 11.4133 18.6735 11.4133C18.4545 11.4133 18.2769 11.2357 18.2769 11.0166V7.28184L18.2764 7.28136V7.51421H14.9664C14.1631 7.51421 13.512 6.86306 13.512 6.05983V2.74979H13.7448L13.7444 2.74935H5.43674ZM14.3053 3.31025V6.05983C14.3053 6.42494 14.6013 6.72091 14.9664 6.72091H17.7159L14.3053 3.31025Z" fill="#747474"/>
<path d="M6.28469 5.887C6.28469 5.66794 6.46227 5.49035 6.68133 5.49035H12.1452C12.3643 5.49035 12.5419 5.66794 12.5419 5.887C12.5419 6.10607 12.3643 6.28365 12.1452 6.28365H6.68133C6.46227 6.28365 6.28469 6.10607 6.28469 5.887Z" fill="#747474"/>
<path d="M6.28472 9.46079C6.28472 9.24173 6.46231 9.06414 6.68137 9.06414H15.656C15.8751 9.06414 16.0526 9.24173 16.0526 9.46079C16.0526 9.67985 15.8751 9.85744 15.656 9.85744H6.68137C6.46231 9.85744 6.28472 9.67985 6.28472 9.46079Z" fill="#747474"/>
<path d="M6.92007 12.9949C6.70101 12.9949 6.52342 13.1725 6.52342 13.3916C6.52342 13.6106 6.70101 13.7882 6.92007 13.7882H11.7511C11.9702 13.7882 12.1478 13.6106 12.1478 13.3916C12.1478 13.1725 11.9702 12.9949 11.7511 12.9949H6.92007Z" fill="#747474"/>
<path fill-rule="evenodd" clip-rule="evenodd" d="M20.2755 19.8316C20.2321 19.7882 20.1811 19.7569 20.1268 19.7378C20.7089 18.9958 21.0559 18.0605 21.0559 17.0443C21.0559 14.632 19.1004 12.6765 16.6882 12.6765C14.2759 12.6765 12.3204 14.632 12.3204 17.0443C12.3204 19.4565 14.2759 21.412 16.6882 21.412C17.8222 21.412 18.8552 20.9799 19.6317 20.2713C19.6509 20.3153 19.6786 20.3565 19.7146 20.3925L21.3052 21.9832C21.4601 22.1381 21.7113 22.1381 21.8662 21.9832C22.0211 21.8283 22.0211 21.5771 21.8662 21.4222L20.2755 19.8316ZM16.6882 20.6187C18.6623 20.6187 20.2626 19.0184 20.2626 17.0443C20.2626 15.0701 18.6623 13.4698 16.6882 13.4698C14.714 13.4698 13.1137 15.0701 13.1137 17.0443C13.1137 19.0184 14.714 20.6187 16.6882 20.6187Z" fill="#747474"/>
<path fill-rule="evenodd" clip-rule="evenodd" d="M5.43674 2.74935C5.07163 2.74935 4.77566 3.04533 4.77566 3.41043V17.9719C4.77566 18.337 5.07163 18.633 5.43674 18.633H10.9266C11.1456 18.633 11.3232 18.8106 11.3232 19.0296C11.3232 19.2487 11.1456 19.4263 10.9266 19.4263H5.43674C4.63351 19.4263 3.98236 18.7751 3.98236 17.9719V3.41043C3.98236 2.6072 4.63351 1.95605 5.43674 1.95605H14.073L19.0702 6.95324V11.0166C19.0702 11.2357 18.8926 11.4133 18.6735 11.4133C18.4545 11.4133 18.2769 11.2357 18.2769 11.0166V7.28184L18.2764 7.28136V7.51421H14.9664C14.1631 7.51421 13.512 6.86306 13.512 6.05983V2.74979H13.7448L13.7444 2.74935H5.43674ZM14.3053 3.31025V6.05983C14.3053 6.42494 14.6013 6.72091 14.9664 6.72091H17.7159L14.3053 3.31025Z" stroke="#747474"/>
<path d="M6.28469 5.887C6.28469 5.66794 6.46227 5.49035 6.68133 5.49035H12.1452C12.3643 5.49035 12.5419 5.66794 12.5419 5.887C12.5419 6.10607 12.3643 6.28365 12.1452 6.28365H6.68133C6.46227 6.28365 6.28469 6.10607 6.28469 5.887Z" stroke="#747474"/>
<path d="M6.28472 9.46079C6.28472 9.24173 6.46231 9.06414 6.68137 9.06414H15.656C15.8751 9.06414 16.0526 9.24173 16.0526 9.46079C16.0526 9.67985 15.8751 9.85744 15.656 9.85744H6.68137C6.46231 9.85744 6.28472 9.67985 6.28472 9.46079Z" stroke="#747474"/>
<path d="M6.92007 12.9949C6.70101 12.9949 6.52342 13.1725 6.52342 13.3916C6.52342 13.6106 6.70101 13.7882 6.92007 13.7882H11.7511C11.9702 13.7882 12.1478 13.6106 12.1478 13.3916C12.1478 13.1725 11.9702 12.9949 11.7511 12.9949H6.92007Z" stroke="#747474"/>
<path fill-rule="evenodd" clip-rule="evenodd" d="M20.2755 19.8316C20.2321 19.7882 20.1811 19.7569 20.1268 19.7378C20.7089 18.9958 21.0559 18.0605 21.0559 17.0443C21.0559 14.632 19.1004 12.6765 16.6882 12.6765C14.2759 12.6765 12.3204 14.632 12.3204 17.0443C12.3204 19.4565 14.2759 21.412 16.6882 21.412C17.8222 21.412 18.8552 20.9799 19.6317 20.2713C19.6509 20.3153 19.6786 20.3565 19.7146 20.3925L21.3052 21.9832C21.4601 22.1381 21.7113 22.1381 21.8662 21.9832C22.0211 21.8283 22.0211 21.5771 21.8662 21.4222L20.2755 19.8316ZM16.6882 20.6187C18.6623 20.6187 20.2626 19.0184 20.2626 17.0443C20.2626 15.0701 18.6623 13.4698 16.6882 13.4698C14.714 13.4698 13.1137 15.0701 13.1137 17.0443C13.1137 19.0184 14.714 20.6187 16.6882 20.6187Z" stroke="#747474"/>
</svg>
