<svg width="24" height="24" viewBox="0 0 24 24" fill="none" xmlns="http://www.w3.org/2000/svg">
<path d="M12.7 6.66667C12.7 6.28007 12.3866 5.96667 12 5.96667C11.6134 5.96667 11.3 6.28007 11.3 6.66667H12.7ZM12 12.6667H11.3C11.3 13.0533 11.6134 13.3667 12 13.3667V12.6667ZM16 13.3667C16.3866 13.3667 16.7 13.0533 16.7 12.6667C16.7 12.2801 16.3866 11.9667 16 11.9667V13.3667ZM12 3.3C7.19673 3.3 3.3 7.19673 3.3 12H4.7C4.7 7.96993 7.96993 4.7 12 4.7V3.3ZM3.3 12C3.3 16.8033 7.19673 20.7 12 20.7V19.3C7.96993 19.3 4.7 16.0301 4.7 12H3.3ZM12 20.7C16.8033 20.7 20.7 16.8033 20.7 12H19.3C19.3 16.0301 16.0301 19.3 12 19.3V20.7ZM20.7 12C20.7 7.19673 16.8033 3.3 12 3.3V4.7C16.0301 4.7 19.3 7.96993 19.3 12H20.7ZM11.3 6.66667V12.6667H12.7V6.66667H11.3ZM12 13.3667H16V11.9667H12V13.3667Z" fill="#747474"/>
</svg>
