<svg width="24" height="24" viewBox="0 0 24 24" fill="none" xmlns="http://www.w3.org/2000/svg">
<path d="M10.1488 3.4797C10.5944 1.50677 13.4056 1.50677 13.8512 3.4797C14.14 4.75835 15.6074 5.36614 16.7158 4.66623C18.426 3.58628 20.4137 5.57405 19.3338 7.28424C18.6339 8.39262 19.2416 9.85995 20.5203 10.1488C22.4932 10.5944 22.4932 13.4056 20.5203 13.8512C19.2416 14.14 18.6339 15.6074 19.3338 16.7158C20.4137 18.426 18.426 20.4137 16.7158 19.3338C15.6074 18.6339 14.14 19.2416 13.8512 20.5203C13.4056 22.4932 10.5944 22.4932 10.1488 20.5203C9.85995 19.2416 8.39262 18.6339 7.28424 19.3338C5.57405 20.4137 3.58628 18.426 4.66623 16.7158C5.36614 15.6074 4.75835 14.14 3.4797 13.8512C1.50677 13.4056 1.50677 10.5944 3.4797 10.1488C4.75835 9.85995 5.36614 8.39262 4.66623 7.28424C3.58628 5.57405 5.57405 3.58628 7.28424 4.66623C8.39262 5.36614 9.85995 4.75835 10.1488 3.4797Z" fill="#747474"/>
<path d="M7.28424 4.66623L6.8838 5.30037L7.28424 4.66623ZM10.1488 3.4797L10.8804 3.64495L10.1488 3.4797ZM4.66623 7.28424L5.30037 6.8838L4.66623 7.28424ZM3.4797 10.1488L3.64495 10.8804L3.4797 10.1488ZM3.4797 13.8512L3.31445 14.5828L3.4797 13.8512ZM4.66623 16.7158L4.03208 16.3153L4.66623 16.7158ZM7.28424 19.3338L7.68469 19.9679L7.28424 19.3338ZM10.1488 20.5203L10.8804 20.3551L10.1488 20.5203ZM13.8512 20.5203L13.1196 20.3551L13.8512 20.5203ZM16.7158 19.3338L17.1162 18.6996L16.7158 19.3338ZM19.3338 16.7158L18.6996 17.1162L19.3338 16.7158ZM20.5203 13.8512L20.3551 13.1196L20.5203 13.8512ZM20.5203 10.1488L20.3551 10.8804L20.5203 10.1488ZM19.3338 7.28424L19.9679 7.68469L19.3338 7.28424ZM16.7158 4.66623L16.3153 4.03208L16.7158 4.66623ZM13.8512 3.4797L14.5828 3.31445L13.8512 3.4797ZM9.53033 11.4697C9.23744 11.1768 8.76256 11.1768 8.46967 11.4697C8.17678 11.7626 8.17678 12.2374 8.46967 12.5303L9.53033 11.4697ZM11 14L10.4697 14.5303C10.7626 14.8232 11.2374 14.8232 11.5303 14.5303L11 14ZM15.5303 10.5303C15.8232 10.2374 15.8232 9.76256 15.5303 9.46967C15.2374 9.17678 14.7626 9.17678 14.4697 9.46967L15.5303 10.5303ZM6.8838 5.30037C8.43019 6.27688 10.4774 5.42891 10.8804 3.64495L9.41721 3.31445C9.24253 4.0878 8.35506 4.4554 7.68469 4.03208L6.8838 5.30037ZM5.30037 6.8838C4.6472 5.84944 5.84944 4.6472 6.8838 5.30037L7.68469 4.03208C5.29866 2.52536 2.52536 5.29866 4.03208 7.68469L5.30037 6.8838ZM3.64495 10.8804C5.42891 10.4774 6.27688 8.43019 5.30037 6.8838L4.03208 7.68469C4.4554 8.35506 4.0878 9.24253 3.31445 9.41722L3.64495 10.8804ZM3.64495 13.1196C2.45168 12.8501 2.45168 11.1499 3.64495 10.8804L3.31445 9.41722C0.561851 10.039 0.561852 13.961 3.31445 14.5828L3.64495 13.1196ZM5.30037 17.1162C6.27688 15.5698 5.42891 13.5226 3.64495 13.1196L3.31445 14.5828C4.0878 14.7575 4.4554 15.6449 4.03208 16.3153L5.30037 17.1162ZM6.8838 18.6996C5.84944 19.3528 4.6472 18.1506 5.30037 17.1162L4.03208 16.3153C2.52536 18.7013 5.29865 21.4746 7.68469 19.9679L6.8838 18.6996ZM10.8804 20.3551C10.4774 18.5711 8.43019 17.7231 6.8838 18.6996L7.68469 19.9679C8.35506 19.5446 9.24253 19.9122 9.41721 20.6856L10.8804 20.3551ZM13.1196 20.3551C12.8501 21.5483 11.1499 21.5483 10.8804 20.3551L9.41721 20.6856C10.039 23.4382 13.961 23.4382 14.5828 20.6856L13.1196 20.3551ZM17.1162 18.6996C15.5698 17.7231 13.5226 18.5711 13.1196 20.3551L14.5828 20.6856C14.7575 19.9122 15.6449 19.5446 16.3153 19.9679L17.1162 18.6996ZM18.6996 17.1162C19.3528 18.1506 18.1506 19.3528 17.1162 18.6996L16.3153 19.9679C18.7013 21.4746 21.4746 18.7013 19.9679 16.3153L18.6996 17.1162ZM20.3551 13.1196C18.5711 13.5226 17.7231 15.5698 18.6996 17.1162L19.9679 16.3153C19.5446 15.6449 19.9122 14.7575 20.6856 14.5828L20.3551 13.1196ZM20.3551 10.8804C21.5483 11.1499 21.5483 12.8501 20.3551 13.1196L20.6856 14.5828C23.4382 13.961 23.4382 10.039 20.6856 9.41722L20.3551 10.8804ZM18.6996 6.8838C17.7231 8.43019 18.5711 10.4774 20.3551 10.8804L20.6856 9.41722C19.9122 9.24253 19.5446 8.35506 19.9679 7.68469L18.6996 6.8838ZM17.1162 5.30037C18.1506 4.6472 19.3528 5.84944 18.6996 6.8838L19.9679 7.68469C21.4746 5.29866 18.7013 2.52536 16.3153 4.03208L17.1162 5.30037ZM13.1196 3.64495C13.5226 5.42891 15.5698 6.27688 17.1162 5.30037L16.3153 4.03208C15.6449 4.4554 14.7575 4.0878 14.5828 3.31445L13.1196 3.64495ZM14.5828 3.31445C13.961 0.561851 10.039 0.561852 9.41721 3.31445L10.8804 3.64495C11.1499 2.45168 12.8501 2.45168 13.1196 3.64495L14.5828 3.31445ZM8.46967 12.5303L10.4697 14.5303L11.5303 13.4697L9.53033 11.4697L8.46967 12.5303ZM11.5303 14.5303L15.5303 10.5303L14.4697 9.46967L10.4697 13.4697L11.5303 14.5303Z" fill="white"/>
</svg>
